<svg xmlns="http://www.w3.org/2000/svg" width="1100" height="1100" style="shape-rendering:geometricPrecision;text-rendering:geometricPrecision;image-rendering:optimizeQuality;fill-rule:evenodd;clip-rule:evenodd"><path style="opacity:1" fill="#bebe3a" d="M329.5 27.5a4.932 4.932 0 0 1 3 .5 790.864 790.864 0 0 1 33 34 494.827 494.827 0 0 1-26 27l20.5 20.5c1.187 1.544 1.52 3.211 1 5a790.922 790.922 0 0 1-34 33 55.61 55.61 0 0 1-12.5-12.5 663.068 663.068 0 0 1 21-22.5 726.342 726.342 0 0 1-22-23.5 494.827 494.827 0 0 1 26-27 325.72 325.72 0 0 1-21-22c3.49-4.323 7.157-8.49 11-12.5z"/><path style="opacity:1" fill="#bebe3a" d="M374.5 69.5a4.932 4.932 0 0 1 3 .5 790.864 790.864 0 0 1 33 34 494.465 494.465 0 0 1-26 27l20.5 20.5c1.187 1.544 1.52 3.211 1 5a790.922 790.922 0 0 1-34 33 55.61 55.61 0 0 1-12.5-12.5 663.068 663.068 0 0 1 21-22.5 726.551 726.551 0 0 1-22-23.5 494.465 494.465 0 0 1 26-27 325.72 325.72 0 0 1-21-22c3.49-4.323 7.157-8.49 11-12.5zM420.5 114.5a4.934 4.934 0 0 1 3 .5 790.922 790.922 0 0 1 33 34 494.465 494.465 0 0 1-26 27l20.5 20.5c1.187 1.544 1.52 3.211 1 5a790.922 790.922 0 0 1-34 33 55.61 55.61 0 0 1-12.5-12.5 663.068 663.068 0 0 1 21-22.5 726.551 726.551 0 0 1-22-23.5 494.465 494.465 0 0 1 26-27 325.673 325.673 0 0 1-21-22c3.49-4.323 7.157-8.49 11-12.5z"/><path style="opacity:.998" d="M288.5 122.5a2.428 2.428 0 0 1 2 .5 6584.002 6584.002 0 0 0 97 96 2136.71 2136.71 0 0 1 54.5 55.5c.5 99.999.667 199.999.5 300 69.667-.167 139.334 0 209 .5L799 722.5c.667 70.667.667 141.333 0 212-49.167 49.167-98.333 98.33-147.5 147.5-70.667.67-141.333.67-212 0-50.167-50.17-100.333-100.333-150.5-150.5-.5-269.666-.667-539.333-.5-809z"/><path style="opacity:1" fill="#bdbc3a" d="M672.5 736.5c-3.254-2.325-6.92-3.658-11-4h-1c-1.533-1.745-3.533-2.745-6-3h-1c-1.533-1.745-3.533-2.745-6-3-2.014.108-3.68-.558-5-2-2.837-2.467-6.171-4.133-10-5h-1c-1.533-1.745-3.533-2.745-6-3a90.025 90.025 0 0 1-10-4c-1.685-2.318-4.019-3.318-7-3a32.508 32.508 0 0 0-7-3c-1.676-2.334-4.009-3.334-7-3h-1c-.111-.617-.444-1.117-1-1.5a18.453 18.453 0 0 0-6-.5c-3.598-2.192-7.598-3.192-12-3-.418-.722-1.084-1.222-2-1.5a885.746 885.746 0 0 0-14-1.5c-9.825-1.158-19.825-1.325-30-.5-.556.383-.889.883-1 1.5a386.131 386.131 0 0 0-34 8.5 684.107 684.107 0 0 1-32 14.5c-4.358.408-8.025 2.075-11 5h-2l-8 2c-1.675.368-2.675 1.368-3 3h-2c-2.772.259-5.105 1.259-7 3a19.22 19.22 0 0 0-6 1 1924.972 1924.972 0 0 1 61-60.5c42-.667 84-.667 126 0a2715.33 2715.33 0 0 1 62.5 61.5c.464.594.631 1.261.5 2z"/><path style="opacity:1" fill="#7f7e27" d="M558.5 695.5h-3c-9.357-.15-18.691.183-28 1 .111-.617.444-1.117 1-1.5 10.175-.825 20.175-.658 30 .5z"/><path style="opacity:1" fill="#454515" d="M555.5 695.5h3c4.662.462 9.329.962 14 1.5.916.278 1.582.778 2 1.5-6.543-.499-12.877-1.499-19-3z"/><path style="opacity:1" fill="#59591b" d="M586.5 701.5a18.453 18.453 0 0 1 6 .5c.556.383.889.883 1 1.5-2.51-.427-4.843-1.093-7-2z"/><path style="opacity:1" fill="#6b6b20" d="M594.5 703.5c2.991-.334 5.324.666 7 3-2.657-.435-4.991-1.435-7-3z"/><path style="opacity:1" fill="#56561b" d="M608.5 709.5c2.981-.318 5.315.682 7 3-2.563-.588-4.896-1.588-7-3z"/><path style="opacity:1" fill="#b250ec" d="M688.5 773.5c-.111-.617-.444-1.117-1-1.5a71.511 71.511 0 0 1-18-6 380.856 380.856 0 0 1-12-2.5 34.033 34.033 0 0 1-8-1.5c-4.663-2.695-9.33-4.862-14-6.5-3.458-2.753-7.458-4.087-12-4-1.014-1.174-2.347-1.84-4-2-2.255-1.88-4.922-2.88-8-3a1088.011 1088.011 0 0 0-12-4c-3.687-2.94-8.02-4.607-13-5h-1c-4.042-1.737-8.376-2.737-13-3h-6c-.763-.768-1.763-1.268-3-1.5a420.29 420.29 0 0 0-41 0c-1.237.232-2.237.732-3 1.5h-3c-2.348.17-4.682.503-7 1-1.53.14-2.53.807-3 2a436.224 436.224 0 0 1-16 3.5 81.316 81.316 0 0 0-3 2.5c-3.95-.012-7.284 1.321-10 4a188.903 188.903 0 0 0-18 7c-2.996.77-5.663 2.104-8 4-1.714 1.238-3.714 1.905-6 2-2.772.259-5.105 1.259-7 3-5.278 1.093-10.278 2.759-15 5a107.77 107.77 0 0 1-14 2.5c-.881.708-1.547 1.542-2 2.5h-1c-2.982.463-5.982.796-9 1-.166-5.344.001-10.677.5-16 2.167-3.5 5-6.333 8.5-8.5a155.93 155.93 0 0 0 33-6c25.338-8.003 50.671-16.003 76-24a219.372 219.372 0 0 1 37-4.5 174.247 174.247 0 0 1 34 4.5 1954.11 1954.11 0 0 1 66 24 567.998 567.998 0 0 0 39 11.5c1.588.51 2.755 1.51 3.5 3 .499 5.323.666 10.656.5 16a51.569 51.569 0 0 1-7-1z"/><path style="opacity:1" fill="#5e5e1c" d="M625.5 716.5c2.467.255 4.467 1.255 6 3-2.467-.255-4.467-1.255-6-3z"/><path style="opacity:1" fill="#58571b" d="M461.5 719.5c-3.399 2.017-7.066 3.684-11 5 2.975-2.925 6.642-4.592 11-5z"/><path style="opacity:1" fill="#65651f" d="M632.5 719.5c3.829.867 7.163 2.533 10 5-3.829-.867-7.163-2.533-10-5z"/><path style="opacity:1" fill="#7f7e27" d="M448.5 724.5c-3.399 2.017-7.066 3.684-11 5 .325-1.632 1.325-2.632 3-3l8-2z"/><path style="opacity:1" fill="#58571a" d="M647.5 726.5c2.467.255 4.467 1.255 6 3-2.467-.255-4.467-1.255-6-3z"/><path style="opacity:1" fill="#59581c" d="M435.5 729.5c-1.782 1.857-4.115 2.857-7 3 1.895-1.741 4.228-2.741 7-3z"/><path style="opacity:1" fill="#57571b" d="M654.5 729.5c2.467.255 4.467 1.255 6 3-2.467-.255-4.467-1.255-6-3z"/><path style="opacity:1" fill="#2d153c" d="M566.5 734.5a276.694 276.694 0 0 0-47 0c.763-.768 1.763-1.268 3-1.5a420.29 420.29 0 0 1 41 0c1.237.232 2.237.732 3 1.5z"/><path style="opacity:1" fill="#535219" d="M428.5 732.5c-2.027 1.588-4.361 2.088-7 1.5.228-.399.562-.565 1-.5a19.22 19.22 0 0 1 6-1z"/><path style="opacity:1" fill="#706f22" d="M661.5 732.5c4.08.342 7.746 1.675 11 4 1.245.469 1.079.803-.5 1-3.926-1.049-7.426-2.715-10.5-5z"/><path style="opacity:1" fill="#4b2163" d="M516.5 734.5c-3.03 1.63-6.363 2.63-10 3 .47-1.193 1.47-1.86 3-2a50.881 50.881 0 0 1 7-1z"/><path style="opacity:1" fill="#5a2877" d="M572.5 734.5c4.624.263 8.958 1.263 13 3-3.663-.452-7.33-.952-11-1.5-.916-.278-1.582-.778-2-1.5z"/><path style="opacity:1" fill="#47205f" d="M586.5 737.5c4.98.393 9.313 2.06 13 5a111.814 111.814 0 0 1-12-3.5c-.556-.383-.889-.883-1-1.5z"/><path style="opacity:1" fill="#4c2265" d="M487.5 743.5c-3.077 1.683-6.41 3.017-10 4 2.716-2.679 6.05-4.012 10-4z"/><path style="opacity:1" fill="#51246b" d="M611.5 746.5c3.078.12 5.745 1.12 8 3-3.078-.12-5.745-1.12-8-3z"/><path style="opacity:1" fill="#602b7f" d="M672.5 778.5c.111.617.444 1.117 1 1.5 4.032.773 8.032 1.606 12 2.5a44.327 44.327 0 0 0 10 2c.167 31.668 0 63.335-.5 95a7.293 7.293 0 0 0-2 3 15435.765 15435.765 0 0 1-83.5 82.5c-42 .667-84 .667-126 0a15435.765 15435.765 0 0 1-83.5-82.5 7.293 7.293 0 0 0-2-3c-.833-31.339-.667-62.672.5-94a9.108 9.108 0 0 1 5-1 121.39 121.39 0 0 1 29-6v-3c2.398.241 4.398-.426 6-2 1.068-.934 2.401-1.268 4-1a65.852 65.852 0 0 0 12-4c15.157-6.56 30.823-12.06 47-16.5 3.301-.997 6.634-1.33 10-1-16.774 21.413-17.274 43.246-1.5 65.5 21.707 21.375 45.207 23.541 70.5 6.5 14.907-13.722 20.407-30.556 16.5-50.5a63.515 63.515 0 0 0-9.5-19l1-1a45581.074 45581.074 0 0 1 84 26z"/><path style="opacity:1" fill="#7e38a7" d="M623.5 751.5c4.542-.087 8.542 1.247 12 4-4.267-.756-8.267-2.089-12-4z"/><path style="opacity:1" fill="#632c83" d="M459.5 754.5c-2.112 2.271-4.779 3.604-8 4 2.337-1.896 5.004-3.23 8-4z"/><path style="opacity:1" fill="#562773" d="M445.5 760.5c-1.895 1.741-4.228 2.741-7 3 1.895-1.741 4.228-2.741 7-3z"/><path style="opacity:1" fill="#7d38a6" d="M657.5 763.5c3.968.894 7.968 1.727 12 2.5a71.511 71.511 0 0 0 18 6c.556.383.889.883 1 1.5a342.245 342.245 0 0 1-25-6.5c-2.258-.876-4.258-2.043-6-3.5z"/><path style="opacity:1" fill="#3e1c53" d="M438.5 763.5c-4.448 3.036-9.448 4.702-15 5 4.722-2.241 9.722-3.907 15-5z"/><path style="opacity:1" fill="#311641" d="M454.5 768.5a65.852 65.852 0 0 1-12 4c3.461-2.542 7.461-3.875 12-4z"/><path style="opacity:1" fill="#76359c" d="M423.5 768.5a119.73 119.73 0 0 1-16 5c.453-.958 1.119-1.792 2-2.5a107.77 107.77 0 0 0 14-2.5z"/><path style="opacity:1" fill="#542570" d="M406.5 773.5c-2.449 1.291-5.116 2.291-8 3-.798-.457-1.131-1.124-1-2 3.018-.204 6.018-.537 9-1z"/><path style="opacity:1" fill="#47205e" d="M438.5 773.5c-1.602 1.574-3.602 2.241-6 2v3a121.39 121.39 0 0 0-29 6c11.004-5.283 22.671-8.95 35-11z"/><path style="opacity:1" fill="#321742" d="M672.5 778.5c3.986.829 7.986 1.663 12 2.5.556.383.889.883 1 1.5a380.856 380.856 0 0 0-12-2.5c-.556-.383-.889-.883-1-1.5z"/><path style="opacity:1" d="M622.5 829.5c24.413.577 37.746 13.077 40 37.5-.759 23.586-12.759 36.753-36 39.5-21.18-4.466-32.18-17.633-33-39.5 1.669-18.899 11.336-31.399 29-37.5z"/><path style="opacity:1" fill="#020103" d="M433.5 892.5c-.229-4.51.438-8.843 2-13 4.729-7.631 11.396-9.798 20-6.5 8.747 4.047 11.913 10.88 9.5 20.5-4.927 11.444-13.094 14.277-24.5 8.5-3.348-2.501-5.682-5.668-7-9.5z"/><path style="opacity:1" fill="#291337" d="M435.5 879.5c-1.562 4.157-2.229 8.49-2 13-1.141-3.14-1.308-6.473-.5-10 .236-1.619 1.069-2.619 2.5-3z"/></svg>